<svg width="659" height="658" viewBox="0 0 659 658" fill="none" xmlns="http://www.w3.org/2000/svg">
<path d="M217.009 545.343C97.3548 545.343 0 448.562 0 328.402C0 510.001 147.392 657.347 329.049 657.347C510.706 657.347 658.098 510.001 658.098 328.402H433.474C434.018 448.562 337.207 545.343 217.009 545.343Z" fill="#0066FF"/>
<path d="M0.543457 328.945C0.543457 448.562 97.3547 545.886 217.553 545.886C337.207 545.886 434.562 449.106 434.562 328.945H329.593H0.543457Z" fill="#536DFE"/>
<path d="M441.632 112.004C561.286 112.004 658.642 208.785 658.642 328.945C658.642 147.346 511.249 0 329.592 0C147.936 0 0.543457 147.346 0.543457 328.945H225.167C225.167 209.329 321.978 112.004 441.632 112.004Z" fill="#536DFE"/>
<path d="M658.641 328.945C658.641 209.329 561.83 112.004 441.632 112.004C321.978 112.004 224.623 208.785 224.623 328.945H329.592H658.641Z" fill="#0066FF"/>
<path d="M0.543457 328.945C0.543457 448.562 97.3547 545.886 217.553 545.886C337.207 545.886 434.562 449.106 434.562 328.945H329.593H0.543457Z" fill="url(#paint0_linear_306_2027)"/>
<path d="M658.641 328.945C658.641 209.329 561.83 112.004 441.632 112.004C321.978 112.004 224.623 208.785 224.623 328.945H329.592H658.641Z" fill="url(#paint1_linear_306_2027)"/>
<path d="M225.167 328.945C225.167 386.579 271.941 433.338 329.592 433.338C387.244 433.338 434.018 386.579 434.018 328.945H383.437H225.167Z" fill="url(#paint2_linear_306_2027)"/>
<path d="M432.93 328.945C432.93 271.312 386.156 225.096 329.048 225.096C271.397 225.096 225.167 271.856 225.167 328.945H275.204H432.93Z" fill="url(#paint3_linear_306_2027)"/>
<defs>
<linearGradient id="paint0_linear_306_2027" x1="217.257" y1="537.982" x2="217.257" y2="335.428" gradientUnits="userSpaceOnUse">
<stop stop-color="#536DFE"/>
<stop offset="1" stop-opacity="0"/>
</linearGradient>
<linearGradient id="paint1_linear_306_2027" x1="441.874" y1="122.074" x2="441.874" y2="338.306" gradientUnits="userSpaceOnUse">
<stop stop-opacity="0.25"/>
<stop offset="1" stop-opacity="0"/>
</linearGradient>
<linearGradient id="paint2_linear_306_2027" x1="329.742" y1="334.444" x2="329.743" y2="433.887" gradientUnits="userSpaceOnUse">
<stop stop-opacity="0.25"/>
<stop offset="1" stop-opacity="0"/>
</linearGradient>
<linearGradient id="paint3_linear_306_2027" x1="329.108" y1="328.885" x2="329.109" y2="225.48" gradientUnits="userSpaceOnUse">
<stop stop-opacity="0.25"/>
<stop offset="1" stop-opacity="0"/>
</linearGradient>
</defs>
</svg>
